HIERARCHY
ROOT hip
{
  OFFSET 0 0 0
  CHANNELS 6 Xposition Yposition Zposition Zrotation Yrotation Xrotation
  JOINT abdomen
  {
    OFFSET 0 20.6881 -0.73152
    CHANNELS 3 Zrotation Xrotation Yrotation
    JOINT chest
    {
      OFFSET 0 11.7043 -0.48768
      CHANNELS 3 Zrotation Xrotation Yrotation
      JOINT neck
      {
        OFFSET 0 22.1894 -2.19456
        CHANNELS 3 Zrotation Xrotation Yrotation
        JOINT head
        {
          OFFSET -0.24384 7.07133 1.2192
          CHANNELS 3 Zrotation Xrotation Yrotation
          JOINT leftEye
          {
            OFFSET 4.14528 8.04674 8.04672
            CHANNELS 3 Zrotation Xrotation Yrotation
            End Site
            {
              OFFSET 1 0 0
            }
          }
          JOINT rightEye
          {
            OFFSET -3.6576 8.04674 8.04672
            CHANNELS 3 Zrotation Xrotation Yrotation
            End Site
            {
              OFFSET 1 0 0
            }
          }
        }
      }
      JOINT rCollar
      {
        OFFSET -2.68224 19.2634 -4.8768
        CHANNELS 3 Zrotation Xrotation Yrotation
        JOINT rShldr
        {
          OFFSET -8.77824 -1.95073 1.46304
          CHANNELS 3 Zrotation Xrotation Yrotation
          JOINT rForeArm
          {
            OFFSET -28.1742 -1.7115 0.48768
            CHANNELS 3 Zrotation Xrotation Yrotation
            JOINT rHand
            {
              OFFSET -22.5879 0.773209 7.07136
              CHANNELS 3 Zrotation Xrotation Yrotation
              JOINT rThumb1
              {
                OFFSET -1.2192 -0.487915 3.41376
                CHANNELS 3 Zrotation Xrotation Yrotation
                JOINT rThumb2
                {
                  OFFSET -3.37035 -0.52449 3.41376
                  CHANNELS 3 Zrotation Xrotation Yrotation
                  End Site
                  {
                    OFFSET -1.78271 -1.18214 1.43049
                  }
                }
              }
              JOINT rIndex1
              {
                OFFSET -7.75947 0.938293 5.60832
                CHANNELS 3 Zrotation Xrotation Yrotation
                JOINT rIndex2
                {
                  OFFSET -2.54057 -0.884171 1.56538
                  CHANNELS 3 Zrotation Xrotation Yrotation
                  End Site
                  {
                    OFFSET -1.62519 -0.234802 1.16502
                  }
                }
              }
              JOINT rMid1
              {
                OFFSET -8.24714 1.18213 3.41376
                CHANNELS 3 Zrotation Xrotation Yrotation
                JOINT rMid2
                {
                  OFFSET -3.10165 -0.590103 1.0647
                  CHANNELS 3 Zrotation Xrotation Yrotation
                  End Site
                  {
                    OFFSET -2.48547 -0.328903 0.83742
                  }
                }
              }
              JOINT rRing1
              {
                OFFSET -8.82822 0.546677 1.51678
                CHANNELS 3 Zrotation Xrotation Yrotation
                JOINT rRing2
                {
                  OFFSET -2.60934 -0.819778 -0.0198488
                  CHANNELS 3 Zrotation Xrotation Yrotation
                  End Site
                  {
                    OFFSET -2.33842 -0.294052 0.168128
                  }
                }
              }
              JOINT rPinky1
              {
                OFFSET -8.27202 -0.0477905 -0.4584
                CHANNELS 3 Zrotation Xrotation Yrotation
                JOINT rPinky2
                {
                  OFFSET -1.82734 -0.647385 -0.700984
                  CHANNELS 3 Zrotation Xrotation Yrotation
                  End Site
                  {
                    OFFSET -1.69225 -0.51767 -0.607171
                  }
                }
              }
            }
          }
        }
      }
      JOINT lCollar
      {
        OFFSET 2.68224 19.2634 -4.8768
        CHANNELS 3 Zrotation Xrotation Yrotation
        JOINT lShldr
        {
          OFFSET 8.77824 -1.95073 1.46304
          CHANNELS 3 Zrotation Xrotation Yrotation
          JOINT lForeArm
          {
            OFFSET 28.1742 -1.7115 0.48768
            CHANNELS 3 Zrotation Xrotation Yrotation
            JOINT lHand
            {
              OFFSET 22.5879 0.773209 7.07136
              CHANNELS 3 Zrotation Xrotation Yrotation
              JOINT lThumb1
              {
                OFFSET 1.2192 -0.487915 3.41376
                CHANNELS 3 Zrotation Xrotation Yrotation
                JOINT lThumb2
                {
                  OFFSET 3.37035 -0.52449 3.41376
                  CHANNELS 3 Zrotation Xrotation Yrotation
                  End Site
                  {
                    OFFSET 1.78271 -1.18214 1.43049
                  }
                }
              }
              JOINT lIndex1
              {
                OFFSET 7.75947 0.938293 5.60832
                CHANNELS 3 Zrotation Xrotation Yrotation
                JOINT lIndex2
                {
                  OFFSET 2.54057 -0.884171 1.56538
                  CHANNELS 3 Zrotation Xrotation Yrotation
                  End Site
                  {
                    OFFSET 1.62519 -0.234802 1.16502
                  }
                }
              }
              JOINT lMid1
              {
                OFFSET 8.24714 1.18213 3.41376
                CHANNELS 3 Zrotation Xrotation Yrotation
                JOINT lMid2
                {
                  OFFSET 3.10165 -0.590103 1.0647
                  CHANNELS 3 Zrotation Xrotation Yrotation
                  End Site
                  {
                    OFFSET 2.48547 -0.328903 0.83742
                  }
                }
              }
              JOINT lRing1
              {
                OFFSET 8.82822 0.546677 1.51678
                CHANNELS 3 Zrotation Xrotation Yrotation
                JOINT lRing2
                {
                  OFFSET 2.60934 -0.819778 -0.0198488
                  CHANNELS 3 Zrotation Xrotation Yrotation
                  End Site
                  {
                    OFFSET 2.33842 -0.294052 0.168128
                  }
                }
              }
              JOINT lPinky1
              {
                OFFSET 8.27202 -0.0477905 -0.4584
                CHANNELS 3 Zrotation Xrotation Yrotation
                JOINT lPinky2
                {
                  OFFSET 1.82734 -0.647385 -0.700984
                  CHANNELS 3 Zrotation Xrotation Yrotation
                  End Site
                  {
                    OFFSET 1.69225 -0.51767 -0.607171
                  }
                }
              }
            }
          }
        }
      }
    }
  }
  JOINT rButtock
  {
    OFFSET -8.77824 4.35084 1.2192
    CHANNELS 3 Zrotation Xrotation Yrotation
    JOINT rThigh
    {
      OFFSET 0 -1.70687 -2.19456
      CHANNELS 3 Zrotation Xrotation Yrotation
      JOINT rShin
      {
        OFFSET 0 -36.8199 0.73152
        CHANNELS 3 Zrotation Xrotation Yrotation
        JOINT rFoot
        {
          OFFSET 0.73152 -45.1104 -5.12064
          CHANNELS 3 Zrotation Xrotation Yrotation
          End Site
          {
            OFFSET -1.1221 -3.69964 12.103
          }
        }
      }
    }
  }
  JOINT lButtock
  {
    OFFSET 8.77824 4.35084 1.2192
    CHANNELS 3 Zrotation Xrotation Yrotation
    JOINT lThigh
    {
      OFFSET 0 -1.70687 -2.19456
      CHANNELS 3 Zrotation Xrotation Yrotation
      JOINT lShin
      {
        OFFSET 0 -36.8199 0.73152
        CHANNELS 3 Zrotation Xrotation Yrotation
        JOINT lFoot
        {
          OFFSET -0.73152 -45.1104 -5.12064
          CHANNELS 3 Zrotation Xrotation Yrotation
          End Site
          {
            OFFSET 1.1221 -3.69964 12.103
          }
        }
      }
    }
  }
}
MOTION
Frames:	4
Frame Time:	0.03333
-2.96628 57.3257 -113.628 8.501 27.812900000000003 6.4749 -17.1131 14.0326 4.29993 5.82132 -10.3582 1.32199 -9.23738 17.1445 -11.857400000000002 11.8773 -25.282099999999996 -20.7913 -0.0 0.0 0.0 -0.0 0.0 0.0 -4.569110000000001e-13 7.52742e-13 5.12707e-13 35.35289999999999 12.6267 32.5747 -16.645 -9.300689999999998 31.046 -0.37869 17.2339 2.4986500000000005 -3.42253e-09 -5.48524e-09 -1.7556600000000001e-09 -5.93811e-09 -9.85728e-09 -2.98299e-09 -3.42252e-09 -5.485260000000001e-09 -1.7556799999999999e-09 7.730909999999999 5.47488 0.417314 -3.42253e-09 -5.48524e-09 -1.75567e-09 2.90554 0.965183 0.102902 -3.42252e-09 -5.48522e-09 -1.75567e-09 10.278600000000003 0.731801 0.0259123 -3.42253e-09 -5.48524e-09 -1.7556600000000001e-09 2.22167 -0.733487 -0.20892000000000002 -4.570930000000001e-13 7.52746e-13 5.12573e-13 -110.508 52.1625 49.8708 28.234299999999998 -38.9222 -82.0115 1.27283 -30.2686 4.704649999999999 -1.7513600000000002e-09 -1.9823899999999994e-09 -2.27119e-09 -2.98043e-09 -3.27686e-09 -3.95282e-09 -1.7513600000000002e-09 -1.9823899999999994e-09 -2.27118e-09 -7.730909999999999 5.47488 -0.417314 -1.7513600000000002e-09 -1.9824e-09 -2.27119e-09 -2.90554 0.965183 -0.102902 -1.7513600000000002e-09 -1.9824e-09 -2.27119e-09 -10.278600000000003 0.731801 -0.0259123 -1.7513499999999997e-09 -1.9823899999999994e-09 -2.2712000000000006e-09 -2.22167 -0.733487 0.20892000000000002 -2.03217e-16 0.0 -3.88251e-19 -53.4857 -54.76780000000001 -43.2123 -1.03073 59.6692 1.56951 0.36619 6.00228 13.9681 2.03217e-16 0.0 3.88251e-19 10.6234 1.26486 2.90756 0.0510948 43.158699999999996 -2.75884 9.5866 -18.217199999999995 33.1912
-2.9354 57.3518 -113.155 8.744100000000001 27.6948 6.8049 -17.455 13.5269 4.49411 5.77117 -10.303 1.3717 -9.2138 17.1436 -11.9486 11.899699999999998 -25.0275 -20.9791 -0.0 0.0 0.0 -0.0 0.0 0.0 -4.3375e-13 7.02851e-13 2.62673e-13 35.3635 12.5098 32.3777 -16.528700000000004 -9.18763 30.797299999999996 -0.380838 17.2822 2.5060799999999994 -1.34094e-09 -1.78607e-09 -6.95108e-10 -2.32705e-09 -3.2292400000000003e-09 -1.18285e-09 -1.3409299999999998e-09 -1.7860999999999997e-09 -6.95126e-10 7.730909999999999 5.47488 0.417314 -1.34094e-09 -1.7860799999999999e-09 -6.9511e-10 2.90554 0.965183 0.102902 -1.3409299999999998e-09 -1.7860500000000003e-09 -6.95113e-10 10.278600000000003 0.731801 0.0259123 -1.34095e-09 -1.7860799999999999e-09 -6.951e-10 2.22167 -0.733487 -0.20892000000000002 -4.33914e-13 7.02854e-13 2.62564e-13 -110.606 51.7341 49.7347 28.2163 -39.0622 -82.2573 1.2846400000000002 -30.387100000000004 4.72732 -8.08722e-10 -1.28316e-09 -8.574170000000002e-10 -1.38008e-09 -2.15863e-09 -1.49377e-09 -8.08728e-10 -1.28316e-09 -8.57407e-10 -7.730909999999999 5.47488 -0.417314 -8.08724e-10 -1.28316e-09 -8.57412e-10 -2.90554 0.965183 -0.102902 -8.08733e-10 -1.28316e-09 -8.574159999999999e-10 -10.278600000000003 0.731801 -0.0259123 -8.08715e-10 -1.28315e-09 -8.574240000000001e-10 -2.22167 -0.733487 0.20892000000000002 -2.03217e-16 0.0 -3.88251e-19 -54.0086 -55.0002 -43.85379999999999 -1.07425 60.3726 1.62109 0.415472 5.61924 13.6872 2.03217e-16 0.0 3.88251e-19 10.5712 2.04216 3.2326 0.031174000000000004 41.8968 -2.71507 9.27786 -18.023 32.7852
-2.89809 57.3454 -112.70400000000001 8.943899999999998 27.695 7.0264 -17.7677 13.1616 4.597650000000001 5.72605 -10.2927 1.39513 -9.179650000000002 17.177200000000003 -12.0387 11.9371 -25.0066 -21.152999999999995 -0.0 0.0 0.0 -0.0 0.0 0.0 -8.20224e-14 8.674590000000002e-14 -2.83302e-13 35.33 12.4891 32.1464 -16.4694 -9.13078 30.670199999999994 -0.400157 17.6982 2.57041 3.27819e-09 6.90093e-09 1.4781800000000002e-09 5.68397e-09 1.2293999999999999e-08 2.50188e-09 3.2782000000000005e-09 6.9009000000000004e-09 1.47817e-09 7.730909999999999 5.47488 0.417314 3.27819e-09 6.90093e-09 1.47819e-09 2.90554 0.965183 0.102902 3.27819e-09 6.90094e-09 1.47819e-09 10.278600000000003 0.731801 0.0259123 3.27818e-09 6.90093e-09 1.47819e-09 2.22167 -0.733487 -0.20892000000000002 -8.21388e-14 8.67433e-14 -2.83486e-13 -110.743 51.201299999999996 49.5903 28.1979 -39.19990000000001 -82.49980000000001 1.2327900000000003 -29.8363 4.623640000000001 1.22799e-09 4.28872e-10 1.96749e-09 2.08392e-09 6.23003e-10 3.41865e-09 1.2279800000000001e-09 4.2886799999999997e-10 1.9674999999999997e-09 -7.730909999999999 5.47488 -0.417314 1.22799e-09 4.288740000000001e-10 1.9674999999999997e-09 -2.90554 0.965183 -0.102902 1.2279800000000001e-09 4.288740000000001e-10 1.96749e-09 -10.278600000000003 0.731801 -0.0259123 1.22799e-09 4.28875e-10 1.96748e-09 -2.22167 -0.733487 0.20892000000000002 -2.03217e-16 0.0 -3.88251e-19 -54.5801 -55.0612 -44.60979999999999 -1.12026 61.0555 1.66665 0.4808160000000001 5.149159999999999 13.386499999999998 2.03217e-16 0.0 3.88251e-19 10.581300000000002 2.7595200000000006 3.49932 0.013353099999999998 40.812099999999994 -2.6827 9.00377 -17.9054 32.3651
-2.86799 57.3225 -112.28499999999998 9.063 27.8271 7.1076 -17.9474 12.931400000000002 4.661380000000001 5.65479 -10.2936 1.40443 -9.1693 17.2445 -12.140600000000001 11.977400000000001 -25.129 -21.3449 -0.0 0.0 0.0 -0.0 0.0 0.0 2.8043200000000007e-14 -6.27139e-14 -4.67821e-13 35.336200000000005 12.475800000000001 31.910999999999994 -16.447099999999995 -9.109389999999998 30.622499999999995 -0.414158 17.989899999999995 2.61573 4.22024e-09 7.95792e-09 2.04327e-09 7.319560000000001e-09 1.42286e-08 3.4647400000000006e-09 4.22024e-09 7.957889999999999e-09 2.04326e-09 7.730909999999999 5.47488 0.417314 4.22024e-09 7.95792e-09 2.04327e-09 2.90554 0.965183 0.102902 4.22024e-09 7.95792e-09 2.04328e-09 10.278600000000003 0.731801 0.0259123 4.22023e-09 7.95792e-09 2.04328e-09 2.22167 -0.733487 -0.20892000000000002 2.7965799999999992e-14 -6.27193e-14 -4.67995e-13 -110.804 50.725 49.4012 28.177499999999995 -39.3461 -82.75769999999999 1.15072 -28.9487 4.45822 1.7409099999999997e-09 1.05935e-09 2.55593e-09 2.95865e-09 1.6722500000000003e-09 4.44414e-09 1.7409e-09 1.05935e-09 2.55594e-09 -7.730909999999999 5.47488 -0.417314 1.7409099999999997e-09 1.05935e-09 2.55593e-09 -2.90554 0.965183 -0.102902 1.7409e-09 1.05935e-09 2.55593e-09 -10.278600000000003 0.731801 -0.0259123 1.7409099999999997e-09 1.05935e-09 2.55592e-09 -2.22167 -0.733487 0.20892000000000002 -2.03217e-16 0.0 -3.88251e-19 -55.04240000000001 -55.0076 -45.1695 -1.16286 61.656 1.70804 0.573 4.63077 13.3085 2.03217e-16 0.0 3.88251e-19 10.647 3.42563 3.62804 -0.0012854999999999998 39.9131 -2.66061 8.77414 -17.785300000000003 32.0608
